<svg width="100" height="100" viewBox="0 0 100 100" fill="none" xmlns="http://www.w3.org/2000/svg">
<path fill-rule="evenodd" clip-rule="evenodd" d="M50.033 100L59.9868 87.3434L75.0165 93.2762L77.3237 77.3237L93.2762 75.0165L87.3434 59.9868L100 50.033L87.3434 40.0132L93.2762 24.9835L77.3237 22.6763L75.0165 6.7238L59.9868 12.6566L50.033 0L40.0132 12.6566L24.9835 6.7238L22.6763 22.6763L6.7238 24.9835L12.6566 40.0132L0 50.033L12.6566 59.9868L6.7238 75.0165L22.6763 77.3237L24.9835 93.2762L40.0132 87.3434L50.033 100Z" fill="#229EDA"/>
<path fill-rule="evenodd" clip-rule="evenodd" d="M29.9933 46.6056L42.518 58.8667L73.7639 29.7302L79.1034 35.7948L43.2432 72.3802L23.731 52.868L29.9933 46.6056Z" fill="#FEFEFE"/>
</svg>
